<svg id="Layer_1" data-name="Layer 1" xmlns="http://www.w3.org/2000/svg" xmlns:xlink="http://www.w3.org/1999/xlink" viewBox="0 0 134.2 39.21"><defs><style>.cls-1{fill:none;}.cls-2{clip-path:url(#clip-path);}.cls-3{fill:#5f4bdb;}.cls-4{fill:#3e2f9a;}.cls-5{fill:#fe8d4d;}</style><clipPath id="clip-path" transform="translate(0 -8.71)"><rect class="cls-1" width="56.63" height="56.63"/></clipPath></defs><g class="cls-2"><path class="cls-3" d="M36.58,9,11.38,26.9a1.73,1.73,0,0,0,0,2.83l25.2,17.86a1.73,1.73,0,0,0,2.73-1.41V10.45A1.73,1.73,0,0,0,36.58,9Z" transform="translate(0 -8.71)"/><path class="cls-3" d="M.73,16.59a1.73,1.73,0,0,0,1,3.14H7.18V12Z" transform="translate(0 -8.71)"/><path class="cls-4" d="M54.9,32.17H42.78V44.61l13.12-9.3A1.73,1.73,0,0,0,54.9,32.17Z" transform="translate(0 -8.71)"/><path class="cls-5" d="M13.38,9a1.73,1.73,0,0,0-2.73,1.42V23.16l11.33-8Z" transform="translate(0 -8.71)"/></g><path class="cls-3" d="M71.63,38.17a7.55,7.55,0,0,1-3-.58,5.07,5.07,0,0,1-2.11-1.68,4.25,4.25,0,0,1-.77-2.52h2.93a2.74,2.74,0,0,0,.84,1.78,3.09,3.09,0,0,0,2.14.69,3.32,3.32,0,0,0,2.21-.67,2.26,2.26,0,0,0,.79-1.77,1.89,1.89,0,0,0-.51-1.37,3.13,3.13,0,0,0-1.22-.82,17.05,17.05,0,0,0-2-.62,21.35,21.35,0,0,1-2.66-.87,4.43,4.43,0,0,1-1.73-1.39,4,4,0,0,1-.72-2.49,4.44,4.44,0,0,1,.72-2.52,4.56,4.56,0,0,1,2-1.66,7.36,7.36,0,0,1,3-.58,6.16,6.16,0,0,1,4,1.23,4.44,4.44,0,0,1,1.73,3.31h-3a2.18,2.18,0,0,0-.86-1.56,3.22,3.22,0,0,0-2.09-.65,3,3,0,0,0-1.92.6,2.08,2.08,0,0,0-.74,1.73A1.83,1.83,0,0,0,69,27a3.49,3.49,0,0,0,1.2.77,18.32,18.32,0,0,0,2,.62,20.12,20.12,0,0,1,2.69.92,4.31,4.31,0,0,1,1.77,1.41,3.94,3.94,0,0,1,.75,2.52,4.44,4.44,0,0,1-.7,2.4,5,5,0,0,1-2,1.83A6.68,6.68,0,0,1,71.63,38.17ZM83.81,27v7.32a1.52,1.52,0,0,0,.33,1.08,1.82,1.82,0,0,0,1.2.31H87V38H84.86A4.2,4.2,0,0,1,82,37.14a3.6,3.6,0,0,1-1-2.81V27H79.49V24.78h1.56V21.49h2.76v3.29H87V27Zm4.82,4.32a7.45,7.45,0,0,1,.82-3.53,6.08,6.08,0,0,1,5.42-3.24,5.72,5.72,0,0,1,2.72.62,5.46,5.46,0,0,1,1.87,1.52V24.78h2.76V38H99.46V36a5.37,5.37,0,0,1-1.9,1.56,6.12,6.12,0,0,1-5.85-.24,6.37,6.37,0,0,1-2.26-2.45A7.7,7.7,0,0,1,88.63,31.33Zm10.83.05A4.64,4.64,0,0,0,98.88,29a4,4,0,0,0-1.46-1.54A3.95,3.95,0,0,0,92,29a4.8,4.8,0,0,0-.55,2.35,5.12,5.12,0,0,0,.55,2.4,4.21,4.21,0,0,0,1.49,1.58,4,4,0,0,0,2,.53,3.91,3.91,0,0,0,2-.53,3.85,3.85,0,0,0,1.46-1.53A4.79,4.79,0,0,0,99.46,31.38Zm11.68-6.82a5.76,5.76,0,0,1,2.71.62,5,5,0,0,1,1.87,1.52V24.78h2.76V38.22a6.74,6.74,0,0,1-.76,3.24,5.52,5.52,0,0,1-2.24,2.25,6.83,6.83,0,0,1-3.45.82,7.57,7.57,0,0,1-4.47-1.27,4.64,4.64,0,0,1-2-3.41h2.71a2.89,2.89,0,0,0,1.32,1.65,4.44,4.44,0,0,0,2.45.65,3.57,3.57,0,0,0,2.66-1,3.88,3.88,0,0,0,1-2.92V36a5.66,5.66,0,0,1-4.58,2.21,6,6,0,0,1-3.17-.87,6.42,6.42,0,0,1-2.25-2.45,7.58,7.58,0,0,1-.82-3.57,7.33,7.33,0,0,1,.82-3.53,6.05,6.05,0,0,1,5.42-3.24Zm4.58,6.82a4.74,4.74,0,0,0-.57-2.38,4,4,0,0,0-1.47-1.54A3.94,3.94,0,0,0,108.26,29a4.69,4.69,0,0,0-.55,2.35,5,5,0,0,0,.55,2.4,4.13,4.13,0,0,0,1.49,1.58,4,4,0,0,0,2,.53,3.88,3.88,0,0,0,3.43-2.06A4.89,4.89,0,0,0,115.72,31.38Zm18.48-.32a9.07,9.07,0,0,1-.1,1.35H124A3.68,3.68,0,0,0,125.17,35a3.72,3.72,0,0,0,2.59,1,3.18,3.18,0,0,0,3.12-1.85h3a6,6,0,0,1-2.19,3,6.35,6.35,0,0,1-3.89,1.16,6.86,6.86,0,0,1-3.4-.84A6.33,6.33,0,0,1,122,35a7.48,7.48,0,0,1-.84-3.6A7.56,7.56,0,0,1,122,27.8a5.92,5.92,0,0,1,2.33-2.4,7,7,0,0,1,3.45-.84,6.69,6.69,0,0,1,3.34.82,5.67,5.67,0,0,1,2.28,2.3A6.87,6.87,0,0,1,134.2,31.06Zm-2.86-.86a3.12,3.12,0,0,0-1.08-2.42,3.86,3.86,0,0,0-2.62-.92,3.48,3.48,0,0,0-2.42.92A3.73,3.73,0,0,0,124,30.2Z" transform="translate(0 -8.71)"/></svg>