<svg width="24" height="24" viewBox="0 0 24 24" fill="none" xmlns="http://www.w3.org/2000/svg">
<path d="M21.71 20.2901L18.88 17.4701C20.4142 15.5748 21.1626 13.163 20.9709 10.7321C20.7792 8.30119 19.6621 6.03653 17.8498 4.40507C16.0375 2.77362 13.6683 1.89977 11.2307 1.96373C8.79311 2.02768 6.47297 3.02456 4.74874 4.7488C3.0245 6.47304 2.02762 8.79317 1.96367 11.2308C1.89971 13.6684 2.77356 16.0376 4.40501 17.8499C6.03646 19.6621 8.30113 20.7793 10.732 20.971C13.1629 21.1627 15.5747 20.4143 17.47 18.8801L20.29 21.7101C20.383 21.8038 20.4936 21.8782 20.6155 21.929C20.7373 21.9798 20.868 22.0059 21 22.0059C21.132 22.0059 21.2627 21.9798 21.3846 21.929C21.5065 21.8782 21.6171 21.8038 21.71 21.7101C21.8038 21.6171 21.8782 21.5065 21.9289 21.3847C21.9797 21.2628 22.0058 21.1321 22.0058 21.0001C22.0058 20.8681 21.9797 20.7374 21.9289 20.6155C21.8782 20.4937 21.8038 20.3831 21.71 20.2901ZM4.00003 11.5001C4.00003 10.0167 4.4399 8.56668 5.26401 7.33331C6.08812 6.09995 7.25946 5.13865 8.6299 4.57099C10.0003 4.00334 11.5084 3.85481 12.9632 4.1442C14.4181 4.43359 15.7544 5.1479 16.8033 6.19679C17.8522 7.24568 18.5665 8.58206 18.8559 10.0369C19.1453 11.4918 18.9968 12.9998 18.4291 14.3702C17.8615 15.7407 16.9002 16.912 15.6668 17.7361C14.4334 18.5602 12.9834 19.0001 11.5 19.0001C9.51091 19.0001 7.60325 18.2099 6.19673 16.8034C4.79021 15.3969 4.00003 13.4892 4.00003 11.5001Z" fill="#646464"/>
</svg>
